Coordinates
version=1
nRows=28
nColumns=33
inDegrees=yes

Units are S.I. units (second, meters, Newtons, ...)
Angles are in degrees.

endheader
time	ground_thorax_rot_x	ground_thorax_rot_y	ground_thorax_rot_z	ground_thorax_tx	ground_thorax_ty	ground_thorax_tz	clav_prot_r	clav_elev_r	scapula_abduction_r	scapula_elevation_r	scapula_upward_rot_r	scapula_winging_r	shoulder_elv_r	plane_of_elev_r	axial_rot_r	elbow_flexion_r	pro_sup_r	wrist_flex_r	wrist_dev_r	clav_prot_l	clav_elev_l	scapula_abduction_l	scapula_elevation_l	scapula_upward_rot_l	scapula_winging_l	shoulder_elv_l	plane_of_elev_l	axial_rot_l	elbow_flexion_l	pro_sup_l	wrist_flex_l	wrist_dev_l	
2.6200	40.450271	9.516854	11.837674	-206.122644	838.562672	2.727685	12.505650	41.245151	40.421282	45.000000	-24.610733	-5491.619882	-2093.885805	32.648931	49.685771	2892.195244	10.841846	19.680502	8.118517	8.349621	-45.000000	-38.871679	45.000000	-45.000000	815.221342	-2250.129464	134.478773	-180.000000	-348.310707	37.823783	6.136846	-23.346480	
2.6300	40.475042	9.409775	11.674625	-207.749949	839.415027	2.694592	12.469299	41.199046	40.338541	45.000000	-24.753856	-5491.616541	-2093.794066	32.684421	49.576902	2892.197606	10.894578	19.699822	7.998759	8.391421	-45.000000	-38.891324	45.000000	-45.000000	815.366931	-2250.129801	134.529304	-180.000000	-348.291776	38.081227	6.058530	-23.380407	
2.6400	40.499166	9.300974	11.508697	-209.341161	840.235746	2.681537	12.435139	41.155416	40.252603	45.000000	-24.902660	-5491.607912	-2093.699899	32.726001	49.465702	2892.197576	10.979373	19.719985	7.879639	8.432566	-45.000000	-38.910906	45.000000	-45.000000	815.505339	-2250.132904	134.579321	-180.000000	-348.277592	38.354494	5.978800	-23.411289	
2.6500	40.524540	9.184640	11.330915	-210.898688	841.025161	2.687558	12.399288	41.111386	40.165124	45.000000	-25.042891	-5491.600991	-2093.607086	32.772582	49.351496	2892.195893	11.097870	19.741355	7.757908	8.468828	-45.000000	-38.930854	45.000000	-45.000000	815.637675	-2250.136552	134.621902	-180.000000	-348.265139	38.641521	5.899837	-23.441031	
2.6600	40.552877	9.061476	11.142217	-212.424980	841.783703	2.711172	12.363153	41.068099	40.075562	45.000000	-25.179943	-5491.595455	-2093.509116	32.825025	49.245798	2892.202340	11.252516	19.765792	7.634606	8.500735	-45.000000	-38.953876	45.000000	-45.000000	815.762706	-2250.143737	134.659908	-180.000000	-348.253386	38.937908	5.823468	-23.469070	
2.6700	40.579512	8.939750	10.954923	-213.922051	842.512003	2.750824	12.327111	41.023117	39.984406	45.000000	-25.312360	-5491.594400	-2093.413327	32.878898	49.149491	2892.213683	11.444701	19.791485	7.507208	8.531204	-45.000000	-38.974473	45.000000	-45.000000	815.885037	-2250.154682	134.695572	-180.000000	-348.242088	39.237667	5.750530	-23.494328	
2.6800	40.601472	8.825827	10.782076	-215.391128	843.210812	2.805251	12.293638	40.977972	39.893530	45.000000	-25.455926	-5491.590974	-2093.314364	32.929868	49.065585	2892.234782	11.676390	19.818859	7.379355	8.564275	-45.000000	-38.992062	45.000000	-45.000000	816.004920	-2250.172899	134.738129	-180.000000	-348.232658	39.535631	5.681249	-23.514751	
2.6900	40.615030	8.722957	10.627308	-216.832696	843.880940	2.873714	12.263184	40.929647	39.802952	45.000000	-25.604094	-5491.589570	-2093.221147	32.976990	48.982608	2892.257390	11.947339	19.844959	7.246405	8.601094	-45.000000	-39.004640	45.000000	-45.000000	816.127241	-2250.197427	134.784337	-180.000000	-348.224905	39.826714	5.617957	-23.531764	
2.7000	40.622686	8.630047	10.491022	-218.246668	844.522988	2.956042	12.234947	40.883407	39.714387	45.000000	-25.766297	-5491.582480	-2093.123705	33.017374	48.902411	2892.288258	12.258247	19.871555	7.113334	8.640471	-45.000000	-39.013271	45.000000	-45.000000	816.247561	-2250.229642	134.840093	-180.000000	-348.219008	40.105879	5.561033	-23.545282	
2.7100	40.619961	8.549738	10.372320	-219.633015	845.137234	3.052527	12.211424	40.832736	39.625924	45.000000	-25.932509	-5491.577450	-2093.038849	33.053481	48.813603	2892.313500	12.608748	19.893471	6.972814	8.682759	-45.000000	-39.019065	45.000000	-45.000000	816.371056	-2250.269200	134.898194	-180.000000	-348.215985	40.369703	5.512877	-23.557368	
2.7200	40.609486	8.478179	10.269113	-220.992076	845.723385	3.163675	12.187806	40.786590	39.541095	45.000000	-26.117580	-5491.559832	-2092.947980	33.079214	48.727564	2892.341591	13.001339	19.914244	6.834674	8.726463	-45.000000	-39.020048	45.000000	-45.000000	816.487543	-2250.314660	134.965371	-180.000000	-348.219491	40.615845	5.471226	-23.566266	
2.7300	40.588338	8.414454	10.176482	-222.325001	846.280575	3.289949	12.169338	40.735216	39.459199	45.000000	-26.313867	-5491.539747	-2092.865990	33.100785	48.635309	2892.364400	13.439742	19.929638	6.690652	8.773235	-45.000000	-39.025296	45.000000	-45.000000	816.604346	-2250.368536	135.033649	-180.000000	-348.229891	40.846003	5.437784	-23.574656	
2.7400	40.561703	8.349405	10.081493	-223.633549	846.807295	3.431538	12.150482	40.685780	39.374566	45.000000	-26.519641	-5491.510020	-2092.783842	33.122147	48.545358	2892.388767	13.925425	19.941989	6.543166	8.816780	-45.000000	-39.031988	45.000000	-45.000000	816.709962	-2250.423981	135.103342	-180.000000	-348.249290	41.062672	5.410510	-23.583122	
2.7500	40.526603	8.290133	9.991799	-224.919977	847.301625	3.588209	12.135211	40.628922	39.290485	45.000000	-26.727808	-5491.483578	-2092.714885	33.139848	48.456892	2892.415081	14.460226	19.949437	6.387450	8.857688	-45.000000	-39.044867	45.000000	-45.000000	816.815988	-2250.488583	135.170455	-180.000000	-348.271982	41.271090	5.386276	-23.592105	
2.7600	40.484364	8.230098	9.903505	-226.186526	847.761479	3.759245	12.118814	40.574272	39.204218	45.000000	-26.940414	-5491.450477	-2092.650612	33.155412	48.378326	2892.446317	15.046814	19.952849	6.223059	8.895200	-45.000000	-39.058373	45.000000	-45.000000	816.912169	-2250.554141	135.241354	-180.000000	-348.300699	41.479610	5.362007	-23.601604	
2.7700	40.435025	8.169362	9.818304	-227.434811	848.184939	3.943410	12.106440	40.512807	39.111845	45.000000	-27.152969	-5491.419432	-2092.596368	33.179358	48.310089	2892.482932	15.688842	19.950660	6.048867	8.931187	-45.000000	-39.071641	45.000000	-45.000000	817.009810	-2250.624709	135.307697	-180.000000	-348.331015	41.697485	5.334697	-23.611514	
2.7800	40.380999	8.106261	9.731675	-228.665485	848.570617	4.139007	12.092723	40.452921	39.013985	45.000000	-27.360412	-5491.387317	-2092.550875	33.207045	48.251731	2892.521537	16.386224	19.941368	5.859572	8.961894	-45.000000	-39.083217	45.000000	-45.000000	817.099070	-2250.694515	135.375549	-180.000000	-348.361490	41.932873	5.303348	-23.623692	
2.7900	40.321184	8.048448	9.656223	-229.877778	848.917895	4.343846	12.081258	40.390052	38.914873	45.000000	-27.572189	-5491.355026	-2092.509982	33.234783	48.209036	2892.565748	17.144603	19.925692	5.665076	8.991395	-45.000000	-39.089864	45.000000	-45.000000	817.189379	-2250.770175	135.442693	-180.000000	-348.388652	42.192190	5.263339	-23.634250	
2.8000	40.256111	7.993154	9.586536	-231.069882	849.227189	4.555356	12.069471	40.330814	38.813172	45.000000	-27.790381	-5491.317672	-2092.470457	33.263132	48.176522	2892.612480	17.964828	19.902164	5.460387	9.021351	-45.000000	-39.089061	45.000000	-45.000000	817.272157	-2250.844540	135.511295	-180.000000	-348.414811	42.480048	5.216864	-23.644814	
2.8100	40.187707	7.944714	9.528902	-232.238831	849.499855	4.770561	12.060536	40.269267	38.707478	45.000000	-28.018189	-5491.278129	-2092.428854	33.294404	48.153050	2892.663182	18.846534	19.871521	5.257330	9.051473	-45.000000	-39.077648	45.000000	-45.000000	817.355481	-2250.921434	135.575993	-180.000000	-348.435858	42.795199	5.161452	-23.652124	
2.8200	40.117295	7.899559	9.471523	-233.381355	849.738179	4.986255	12.052389	40.208396	38.601029	45.000000	-28.249750	-5491.238897	-2092.392345	33.324145	48.128756	2892.713406	19.782366	19.831457	5.048164	9.080349	-45.000000	-39.063609	45.000000	-45.000000	817.431636	-2250.995886	135.635592	-180.000000	-348.453092	43.134501	5.102615	-23.659463	
2.8300	40.048050	7.861048	9.426556	-234.494093	849.945073	5.199050	12.045396	40.146898	38.495580	45.000000	-28.487649	-5491.200154	-2092.346889	33.351292	48.111349	2892.776187	20.765350	19.787304	4.849083	9.106207	-45.000000	-39.042001	45.000000	-45.000000	817.508101	-2251.073860	135.692538	-180.000000	-348.462241	43.489333	5.037308	-23.662816	
2.8400	39.973826	7.823578	9.384767	-235.574460	850.123965	5.405607	12.039542	40.087560	38.393802	45.000000	-28.730295	-5491.156297	-2092.313296	33.374796	48.093592	2892.834418	21.786638	19.733003	4.650836	9.133395	-45.000000	-39.018461	45.000000	-45.000000	817.578467	-2251.140997	135.745166	-180.000000	-348.475489	43.853723	4.972660	-23.663590	
2.8500	39.897946	7.787661	9.353566	-236.620519	850.278500	5.602713	12.036889	40.026844	38.294665	45.000000	-28.975037	-5491.109826	-2092.280688	33.398432	48.078188	2892.903805	22.840236	19.674585	4.463254	9.156597	-45.000000	-38.997068	45.000000	-45.000000	817.649422	-2251.208221	135.800015	-180.000000	-348.487545	44.218869	4.907037	-23.660598	
2.8600	39.817921	7.751860	9.329255	-237.630997	850.412377	5.787464	12.035619	39.967711	38.206583	45.000000	-29.225463	-5491.058129	-2092.259595	33.413929	48.061439	2892.979040	23.923211	19.608698	4.277414	9.180291	-45.000000	-38.982192	45.000000	-45.000000	817.716079	-2251.271091	135.857690	-180.000000	-348.504026	44.579863	4.844467	-23.655197	
2.8700	39.740402	7.717081	9.316469	-238.605334	850.529194	5.957412	12.037579	39.906579	38.119555	45.000000	-29.476684	-5491.006957	-2092.231010	33.433135	48.049496	2893.077570	25.028797	19.542518	4.100808	9.199465	-45.000000	-38.969547	45.000000	-45.000000	817.784461	-2251.338947	135.918017	-180.000000	-348.516766	44.928925	4.782370	-23.646702	
2.8800	39.663029	7.681322	9.306864	-239.542995	850.632075	6.110723	12.038625	39.847214	38.036004	45.000000	-29.726863	-5490.954536	-2092.210298	33.451371	48.041642	2893.181970	26.145232	19.469419	3.925136	9.218108	-45.000000	-38.953180	45.000000	-45.000000	817.848723	-2251.398855	135.972033	-180.000000	-348.531090	45.260570	4.723670	-23.635764	
2.8900	39.592674	7.651904	9.308910	-240.443190	850.723335	6.246290	12.042014	39.787062	37.949018	45.000000	-29.971762	-5490.908021	-2092.179131	33.472498	48.046432	2893.305945	27.259999	19.397019	3.759662	9.231271	-45.000000	-38.932498	45.000000	-45.000000	817.914340	-2251.463041	136.022909	-180.000000	-348.535581	45.568158	4.664681	-23.621667	
